<mxfile host="app.diagrams.net" modified="2023-09-18T07:23:19.167Z" agent="Mozilla/5.0 (Windows NT 10.0; Win64; x64) AppleWebKit/537.36 (KHTML, like Gecko) Chrome/117.0.0.0 Safari/537.36" etag="eQn7kb_8L_QHfm_7Aobh" version="21.7.5" type="github">
  <diagram name="Page-1" id="-LTqzEXaLZeRgz-uC56J">
    <mxGraphModel dx="1621" dy="1611" grid="1" gridSize="10" guides="1" tooltips="1" connect="1" arrows="1" fold="1" page="1" pageScale="1" pageWidth="827" pageHeight="1169" math="0" shadow="0">
      <root>
        <mxCell id="0" />
        <mxCell id="1" parent="0" />
        <mxCell id="3k8ihjljbsw3tqjHmIiB-1" style="edgeStyle=orthogonalEdgeStyle;rounded=0;orthogonalLoop=1;jettySize=auto;html=1;" edge="1" parent="1" source="3k8ihjljbsw3tqjHmIiB-73">
          <mxGeometry relative="1" as="geometry">
            <mxPoint x="-1.6667175292967613" y="270.0000000000001" as="targetPoint" />
          </mxGeometry>
        </mxCell>
        <mxCell id="3k8ihjljbsw3tqjHmIiB-2" value="Master" style="text;html=1;strokeColor=#82b366;fillColor=#d5e8d4;align=center;verticalAlign=middle;whiteSpace=wrap;rounded=0;" vertex="1" parent="1">
          <mxGeometry x="870" y="260" width="88" height="21" as="geometry" />
        </mxCell>
        <mxCell id="3k8ihjljbsw3tqjHmIiB-3" style="edgeStyle=orthogonalEdgeStyle;rounded=0;orthogonalLoop=1;jettySize=auto;html=1;" edge="1" parent="1" source="3k8ihjljbsw3tqjHmIiB-65">
          <mxGeometry relative="1" as="geometry">
            <mxPoint x="100" y="230" as="targetPoint" />
          </mxGeometry>
        </mxCell>
        <mxCell id="3k8ihjljbsw3tqjHmIiB-4" value="Hotfix" style="text;html=1;strokeColor=#b85450;fillColor=#f8cecc;align=center;verticalAlign=middle;whiteSpace=wrap;rounded=0;" vertex="1" parent="1">
          <mxGeometry x="870" y="220" width="88" height="21" as="geometry" />
        </mxCell>
        <mxCell id="3k8ihjljbsw3tqjHmIiB-5" style="edgeStyle=orthogonalEdgeStyle;rounded=0;orthogonalLoop=1;jettySize=auto;html=1;entryX=1;entryY=0.5;entryDx=0;entryDy=0;" edge="1" parent="1" source="3k8ihjljbsw3tqjHmIiB-6" target="3k8ihjljbsw3tqjHmIiB-58">
          <mxGeometry relative="1" as="geometry" />
        </mxCell>
        <mxCell id="3k8ihjljbsw3tqjHmIiB-6" value="Release Branches" style="text;html=1;strokeColor=#d79b00;fillColor=#ffe6cc;align=center;verticalAlign=middle;whiteSpace=wrap;rounded=0;fontSize=12;" vertex="1" parent="1">
          <mxGeometry x="870" y="170" width="88" height="31" as="geometry" />
        </mxCell>
        <mxCell id="3k8ihjljbsw3tqjHmIiB-7" style="edgeStyle=orthogonalEdgeStyle;rounded=0;orthogonalLoop=1;jettySize=auto;html=1;entryX=1;entryY=0.5;entryDx=0;entryDy=0;strokeWidth=0.01;" edge="1" parent="1" source="3k8ihjljbsw3tqjHmIiB-8" target="3k8ihjljbsw3tqjHmIiB-16">
          <mxGeometry relative="1" as="geometry" />
        </mxCell>
        <mxCell id="3k8ihjljbsw3tqjHmIiB-8" value="Feature team 1" style="text;html=1;strokeColor=#9673a6;fillColor=#e1d5e7;align=center;verticalAlign=middle;whiteSpace=wrap;rounded=0;" vertex="1" parent="1">
          <mxGeometry x="870" y="60" width="88" height="21" as="geometry" />
        </mxCell>
        <mxCell id="3k8ihjljbsw3tqjHmIiB-9" style="edgeStyle=orthogonalEdgeStyle;rounded=0;orthogonalLoop=1;jettySize=auto;html=1;" edge="1" parent="1" source="3k8ihjljbsw3tqjHmIiB-10" target="3k8ihjljbsw3tqjHmIiB-23">
          <mxGeometry relative="1" as="geometry" />
        </mxCell>
        <mxCell id="3k8ihjljbsw3tqjHmIiB-10" value="Feature team 2" style="text;html=1;strokeColor=#9673a6;fillColor=#e1d5e7;align=center;verticalAlign=middle;whiteSpace=wrap;rounded=0;" vertex="1" parent="1">
          <mxGeometry x="870" y="90" width="88" height="21" as="geometry" />
        </mxCell>
        <mxCell id="3k8ihjljbsw3tqjHmIiB-11" style="edgeStyle=orthogonalEdgeStyle;rounded=0;orthogonalLoop=1;jettySize=auto;html=1;entryX=1;entryY=0.5;entryDx=0;entryDy=0;" edge="1" parent="1" source="3k8ihjljbsw3tqjHmIiB-12" target="3k8ihjljbsw3tqjHmIiB-46">
          <mxGeometry relative="1" as="geometry" />
        </mxCell>
        <mxCell id="3k8ihjljbsw3tqjHmIiB-12" value="Development" style="text;html=1;strokeColor=#666666;fillColor=#f5f5f5;align=center;verticalAlign=middle;whiteSpace=wrap;rounded=0;fontColor=#333333;" vertex="1" parent="1">
          <mxGeometry x="870" y="130" width="88" height="21" as="geometry" />
        </mxCell>
        <mxCell id="3k8ihjljbsw3tqjHmIiB-13" value="Time" style="text;html=1;strokeColor=#6c8ebf;fillColor=#dae8fc;align=center;verticalAlign=middle;whiteSpace=wrap;rounded=0;" vertex="1" parent="1">
          <mxGeometry x="870" y="30" width="88" height="21" as="geometry" />
        </mxCell>
        <mxCell id="3k8ihjljbsw3tqjHmIiB-14" value="" style="endArrow=none;dashed=1;html=1;fillColor=#dae8fc;strokeColor=#6c8ebf;entryX=0;entryY=0.5;entryDx=0;entryDy=0;" edge="1" parent="1" target="3k8ihjljbsw3tqjHmIiB-13">
          <mxGeometry width="50" height="50" relative="1" as="geometry">
            <mxPoint x="170" y="39" as="sourcePoint" />
            <mxPoint x="820" y="39" as="targetPoint" />
          </mxGeometry>
        </mxCell>
        <mxCell id="3k8ihjljbsw3tqjHmIiB-15" style="edgeStyle=orthogonalEdgeStyle;rounded=0;orthogonalLoop=1;jettySize=auto;html=1;entryX=1;entryY=0.5;entryDx=0;entryDy=0;" edge="1" parent="1" source="3k8ihjljbsw3tqjHmIiB-16" target="3k8ihjljbsw3tqjHmIiB-18">
          <mxGeometry relative="1" as="geometry" />
        </mxCell>
        <mxCell id="3k8ihjljbsw3tqjHmIiB-16" value="" style="ellipse;whiteSpace=wrap;html=1;aspect=fixed;fontSize=12;fillColor=#e1d5e7;strokeColor=#9673a6;" vertex="1" parent="1">
          <mxGeometry x="610" y="60" width="17" height="19" as="geometry" />
        </mxCell>
        <mxCell id="3k8ihjljbsw3tqjHmIiB-17" style="edgeStyle=orthogonalEdgeStyle;rounded=0;orthogonalLoop=1;jettySize=auto;html=1;entryX=1;entryY=0.5;entryDx=0;entryDy=0;" edge="1" parent="1" source="3k8ihjljbsw3tqjHmIiB-18" target="3k8ihjljbsw3tqjHmIiB-20">
          <mxGeometry relative="1" as="geometry" />
        </mxCell>
        <mxCell id="3k8ihjljbsw3tqjHmIiB-18" value="" style="ellipse;whiteSpace=wrap;html=1;aspect=fixed;fontSize=12;fillColor=#e1d5e7;strokeColor=#9673a6;" vertex="1" parent="1">
          <mxGeometry x="560" y="60" width="17" height="19" as="geometry" />
        </mxCell>
        <mxCell id="3k8ihjljbsw3tqjHmIiB-19" style="edgeStyle=orthogonalEdgeStyle;rounded=0;orthogonalLoop=1;jettySize=auto;html=1;entryX=1;entryY=0.5;entryDx=0;entryDy=0;" edge="1" parent="1" source="3k8ihjljbsw3tqjHmIiB-20" target="3k8ihjljbsw3tqjHmIiB-21">
          <mxGeometry relative="1" as="geometry" />
        </mxCell>
        <mxCell id="3k8ihjljbsw3tqjHmIiB-20" value="" style="ellipse;whiteSpace=wrap;html=1;aspect=fixed;fontSize=12;fillColor=#e1d5e7;strokeColor=#9673a6;" vertex="1" parent="1">
          <mxGeometry x="340" y="60" width="17" height="19" as="geometry" />
        </mxCell>
        <mxCell id="3k8ihjljbsw3tqjHmIiB-21" value="" style="ellipse;whiteSpace=wrap;html=1;aspect=fixed;fontSize=12;fillColor=#e1d5e7;strokeColor=#9673a6;" vertex="1" parent="1">
          <mxGeometry x="120" y="60" width="17" height="19" as="geometry" />
        </mxCell>
        <mxCell id="3k8ihjljbsw3tqjHmIiB-22" style="edgeStyle=orthogonalEdgeStyle;rounded=0;orthogonalLoop=1;jettySize=auto;html=1;entryX=1;entryY=0.5;entryDx=0;entryDy=0;" edge="1" parent="1" source="3k8ihjljbsw3tqjHmIiB-23" target="3k8ihjljbsw3tqjHmIiB-25">
          <mxGeometry relative="1" as="geometry" />
        </mxCell>
        <mxCell id="3k8ihjljbsw3tqjHmIiB-23" value="" style="ellipse;whiteSpace=wrap;html=1;aspect=fixed;fontSize=12;fillColor=#e1d5e7;strokeColor=#9673a6;" vertex="1" parent="1">
          <mxGeometry x="580" y="90" width="17" height="19" as="geometry" />
        </mxCell>
        <mxCell id="3k8ihjljbsw3tqjHmIiB-24" style="edgeStyle=orthogonalEdgeStyle;rounded=0;orthogonalLoop=1;jettySize=auto;html=1;exitX=0;exitY=0.5;exitDx=0;exitDy=0;entryX=1;entryY=0.5;entryDx=0;entryDy=0;" edge="1" parent="1" source="3k8ihjljbsw3tqjHmIiB-25" target="3k8ihjljbsw3tqjHmIiB-30">
          <mxGeometry relative="1" as="geometry" />
        </mxCell>
        <mxCell id="3k8ihjljbsw3tqjHmIiB-25" value="" style="ellipse;whiteSpace=wrap;html=1;aspect=fixed;fontSize=12;fillColor=#e1d5e7;strokeColor=#9673a6;" vertex="1" parent="1">
          <mxGeometry x="530" y="90" width="17" height="19" as="geometry" />
        </mxCell>
        <mxCell id="3k8ihjljbsw3tqjHmIiB-26" style="edgeStyle=orthogonalEdgeStyle;rounded=0;orthogonalLoop=1;jettySize=auto;html=1;entryX=1;entryY=0.5;entryDx=0;entryDy=0;" edge="1" parent="1" source="3k8ihjljbsw3tqjHmIiB-32" target="3k8ihjljbsw3tqjHmIiB-28">
          <mxGeometry relative="1" as="geometry" />
        </mxCell>
        <mxCell id="3k8ihjljbsw3tqjHmIiB-27" value="" style="ellipse;whiteSpace=wrap;html=1;aspect=fixed;fontSize=12;fillColor=#e1d5e7;strokeColor=#9673a6;" vertex="1" parent="1">
          <mxGeometry x="280" y="90" width="17" height="19" as="geometry" />
        </mxCell>
        <mxCell id="3k8ihjljbsw3tqjHmIiB-28" value="" style="ellipse;whiteSpace=wrap;html=1;aspect=fixed;fontSize=12;fillColor=#e1d5e7;strokeColor=#9673a6;" vertex="1" parent="1">
          <mxGeometry x="160" y="90" width="17" height="19" as="geometry" />
        </mxCell>
        <mxCell id="3k8ihjljbsw3tqjHmIiB-29" style="edgeStyle=orthogonalEdgeStyle;rounded=0;orthogonalLoop=1;jettySize=auto;html=1;entryX=1;entryY=0.5;entryDx=0;entryDy=0;" edge="1" parent="1" source="3k8ihjljbsw3tqjHmIiB-30" target="3k8ihjljbsw3tqjHmIiB-27">
          <mxGeometry relative="1" as="geometry" />
        </mxCell>
        <mxCell id="3k8ihjljbsw3tqjHmIiB-30" value="" style="ellipse;whiteSpace=wrap;html=1;aspect=fixed;fontSize=12;fillColor=#e1d5e7;strokeColor=#9673a6;" vertex="1" parent="1">
          <mxGeometry x="470" y="90" width="17" height="19" as="geometry" />
        </mxCell>
        <mxCell id="3k8ihjljbsw3tqjHmIiB-31" value="" style="edgeStyle=orthogonalEdgeStyle;rounded=0;orthogonalLoop=1;jettySize=auto;html=1;entryX=1;entryY=0.5;entryDx=0;entryDy=0;" edge="1" parent="1" source="3k8ihjljbsw3tqjHmIiB-27" target="3k8ihjljbsw3tqjHmIiB-32">
          <mxGeometry relative="1" as="geometry">
            <mxPoint x="310" y="100" as="sourcePoint" />
            <mxPoint x="180" y="100" as="targetPoint" />
          </mxGeometry>
        </mxCell>
        <mxCell id="3k8ihjljbsw3tqjHmIiB-32" value="" style="ellipse;whiteSpace=wrap;html=1;aspect=fixed;fontSize=12;fillColor=#e1d5e7;strokeColor=#9673a6;" vertex="1" parent="1">
          <mxGeometry x="230" y="90" width="17" height="19" as="geometry" />
        </mxCell>
        <mxCell id="3k8ihjljbsw3tqjHmIiB-33" style="edgeStyle=orthogonalEdgeStyle;rounded=0;orthogonalLoop=1;jettySize=auto;html=1;entryX=1;entryY=0.5;entryDx=0;entryDy=0;" edge="1" parent="1" source="3k8ihjljbsw3tqjHmIiB-34" target="3k8ihjljbsw3tqjHmIiB-36">
          <mxGeometry relative="1" as="geometry" />
        </mxCell>
        <mxCell id="3k8ihjljbsw3tqjHmIiB-34" value="" style="ellipse;whiteSpace=wrap;html=1;aspect=fixed;fontSize=12;fillColor=#f5f5f5;strokeColor=#666666;fontColor=#333333;" vertex="1" parent="1">
          <mxGeometry x="590" y="130" width="17" height="19" as="geometry" />
        </mxCell>
        <mxCell id="3k8ihjljbsw3tqjHmIiB-35" style="edgeStyle=orthogonalEdgeStyle;rounded=0;orthogonalLoop=1;jettySize=auto;html=1;exitX=0;exitY=0.5;exitDx=0;exitDy=0;entryX=1;entryY=0.5;entryDx=0;entryDy=0;" edge="1" parent="1" source="3k8ihjljbsw3tqjHmIiB-36" target="3k8ihjljbsw3tqjHmIiB-41">
          <mxGeometry relative="1" as="geometry" />
        </mxCell>
        <mxCell id="3k8ihjljbsw3tqjHmIiB-36" value="" style="ellipse;whiteSpace=wrap;html=1;aspect=fixed;fontSize=12;fillColor=#f5f5f5;strokeColor=#666666;fontColor=#333333;" vertex="1" parent="1">
          <mxGeometry x="510" y="130" width="17" height="19" as="geometry" />
        </mxCell>
        <mxCell id="3k8ihjljbsw3tqjHmIiB-37" style="edgeStyle=orthogonalEdgeStyle;rounded=0;orthogonalLoop=1;jettySize=auto;html=1;entryX=1;entryY=0.5;entryDx=0;entryDy=0;" edge="1" parent="1" source="3k8ihjljbsw3tqjHmIiB-43" target="3k8ihjljbsw3tqjHmIiB-39">
          <mxGeometry relative="1" as="geometry" />
        </mxCell>
        <mxCell id="3k8ihjljbsw3tqjHmIiB-38" value="" style="ellipse;whiteSpace=wrap;html=1;aspect=fixed;fontSize=12;fillColor=#f5f5f5;strokeColor=#666666;fontColor=#333333;" vertex="1" parent="1">
          <mxGeometry x="190" y="130" width="17" height="19" as="geometry" />
        </mxCell>
        <mxCell id="3k8ihjljbsw3tqjHmIiB-39" value="" style="ellipse;whiteSpace=wrap;html=1;aspect=fixed;fontSize=12;fillColor=#f5f5f5;strokeColor=#666666;fontColor=#333333;" vertex="1" parent="1">
          <mxGeometry x="20" y="130" width="17" height="19" as="geometry" />
        </mxCell>
        <mxCell id="3k8ihjljbsw3tqjHmIiB-40" style="edgeStyle=orthogonalEdgeStyle;rounded=0;orthogonalLoop=1;jettySize=auto;html=1;entryX=1;entryY=0.5;entryDx=0;entryDy=0;" edge="1" parent="1" source="3k8ihjljbsw3tqjHmIiB-50" target="3k8ihjljbsw3tqjHmIiB-38">
          <mxGeometry relative="1" as="geometry" />
        </mxCell>
        <mxCell id="3k8ihjljbsw3tqjHmIiB-41" value="" style="ellipse;whiteSpace=wrap;html=1;aspect=fixed;fontSize=12;fillColor=#f5f5f5;strokeColor=#666666;fontColor=#333333;" vertex="1" parent="1">
          <mxGeometry x="450" y="130" width="17" height="19" as="geometry" />
        </mxCell>
        <mxCell id="3k8ihjljbsw3tqjHmIiB-42" value="" style="edgeStyle=orthogonalEdgeStyle;rounded=0;orthogonalLoop=1;jettySize=auto;html=1;entryX=1;entryY=0.5;entryDx=0;entryDy=0;" edge="1" parent="1" source="3k8ihjljbsw3tqjHmIiB-38" target="3k8ihjljbsw3tqjHmIiB-43">
          <mxGeometry relative="1" as="geometry">
            <mxPoint x="310" y="140" as="sourcePoint" />
            <mxPoint x="180" y="140" as="targetPoint" />
          </mxGeometry>
        </mxCell>
        <mxCell id="3k8ihjljbsw3tqjHmIiB-43" value="" style="ellipse;whiteSpace=wrap;html=1;aspect=fixed;fontSize=12;fillColor=#f5f5f5;strokeColor=#666666;fontColor=#333333;" vertex="1" parent="1">
          <mxGeometry x="100" y="130" width="17" height="19" as="geometry" />
        </mxCell>
        <mxCell id="3k8ihjljbsw3tqjHmIiB-44" style="edgeStyle=orthogonalEdgeStyle;rounded=0;orthogonalLoop=1;jettySize=auto;html=1;exitX=0;exitY=0.5;exitDx=0;exitDy=0;entryX=1;entryY=0.5;entryDx=0;entryDy=0;" edge="1" parent="1" source="3k8ihjljbsw3tqjHmIiB-46" target="3k8ihjljbsw3tqjHmIiB-54">
          <mxGeometry relative="1" as="geometry" />
        </mxCell>
        <mxCell id="3k8ihjljbsw3tqjHmIiB-45" value="" style="edgeStyle=orthogonalEdgeStyle;rounded=0;orthogonalLoop=1;jettySize=auto;html=1;" edge="1" parent="1" source="3k8ihjljbsw3tqjHmIiB-54" target="3k8ihjljbsw3tqjHmIiB-52">
          <mxGeometry relative="1" as="geometry" />
        </mxCell>
        <mxCell id="3k8ihjljbsw3tqjHmIiB-46" value="" style="ellipse;whiteSpace=wrap;html=1;aspect=fixed;fontSize=12;fillColor=#f5f5f5;fontColor=#333333;strokeColor=#666666;" vertex="1" parent="1">
          <mxGeometry x="790" y="130" width="17" height="19" as="geometry" />
        </mxCell>
        <mxCell id="3k8ihjljbsw3tqjHmIiB-47" value="" style="edgeStyle=orthogonalEdgeStyle;rounded=0;orthogonalLoop=1;jettySize=auto;html=1;" edge="1" parent="1" source="3k8ihjljbsw3tqjHmIiB-54" target="3k8ihjljbsw3tqjHmIiB-52">
          <mxGeometry relative="1" as="geometry" />
        </mxCell>
        <mxCell id="3k8ihjljbsw3tqjHmIiB-48" value="" style="edgeStyle=orthogonalEdgeStyle;rounded=0;orthogonalLoop=1;jettySize=auto;html=1;" edge="1" parent="1" source="3k8ihjljbsw3tqjHmIiB-54" target="3k8ihjljbsw3tqjHmIiB-52">
          <mxGeometry relative="1" as="geometry" />
        </mxCell>
        <mxCell id="3k8ihjljbsw3tqjHmIiB-49" value="" style="edgeStyle=orthogonalEdgeStyle;rounded=0;orthogonalLoop=1;jettySize=auto;html=1;entryX=1;entryY=0.5;entryDx=0;entryDy=0;" edge="1" parent="1" source="3k8ihjljbsw3tqjHmIiB-41" target="3k8ihjljbsw3tqjHmIiB-50">
          <mxGeometry relative="1" as="geometry">
            <mxPoint x="490" y="140" as="sourcePoint" />
            <mxPoint x="330" y="140" as="targetPoint" />
          </mxGeometry>
        </mxCell>
        <mxCell id="3k8ihjljbsw3tqjHmIiB-50" value="" style="ellipse;whiteSpace=wrap;html=1;aspect=fixed;fontSize=12;fillColor=#f5f5f5;strokeColor=#666666;fontColor=#333333;" vertex="1" parent="1">
          <mxGeometry x="310" y="130" width="17" height="19" as="geometry" />
        </mxCell>
        <mxCell id="3k8ihjljbsw3tqjHmIiB-51" style="edgeStyle=orthogonalEdgeStyle;rounded=0;orthogonalLoop=1;jettySize=auto;html=1;exitX=0;exitY=0.5;exitDx=0;exitDy=0;entryX=1;entryY=0.5;entryDx=0;entryDy=0;" edge="1" parent="1" source="3k8ihjljbsw3tqjHmIiB-52" target="3k8ihjljbsw3tqjHmIiB-34">
          <mxGeometry relative="1" as="geometry" />
        </mxCell>
        <mxCell id="3k8ihjljbsw3tqjHmIiB-52" value="" style="ellipse;whiteSpace=wrap;html=1;aspect=fixed;fontSize=12;fillColor=#f5f5f5;strokeColor=#666666;fontColor=#333333;" vertex="1" parent="1">
          <mxGeometry x="640" y="130" width="17" height="19" as="geometry" />
        </mxCell>
        <mxCell id="3k8ihjljbsw3tqjHmIiB-53" value="" style="edgeStyle=orthogonalEdgeStyle;rounded=0;orthogonalLoop=1;jettySize=auto;html=1;" edge="1" parent="1" source="3k8ihjljbsw3tqjHmIiB-46" target="3k8ihjljbsw3tqjHmIiB-54">
          <mxGeometry relative="1" as="geometry">
            <mxPoint x="760" y="140" as="sourcePoint" />
            <mxPoint x="670" y="140" as="targetPoint" />
          </mxGeometry>
        </mxCell>
        <mxCell id="3k8ihjljbsw3tqjHmIiB-54" value="" style="ellipse;whiteSpace=wrap;html=1;aspect=fixed;fontSize=12;fillColor=#f5f5f5;strokeColor=#666666;fontColor=#333333;" vertex="1" parent="1">
          <mxGeometry x="740" y="130" width="17" height="19" as="geometry" />
        </mxCell>
        <mxCell id="3k8ihjljbsw3tqjHmIiB-55" style="edgeStyle=orthogonalEdgeStyle;rounded=0;orthogonalLoop=1;jettySize=auto;html=1;entryX=1;entryY=0.5;entryDx=0;entryDy=0;" edge="1" parent="1" source="3k8ihjljbsw3tqjHmIiB-56" target="3k8ihjljbsw3tqjHmIiB-60">
          <mxGeometry relative="1" as="geometry" />
        </mxCell>
        <mxCell id="3k8ihjljbsw3tqjHmIiB-56" value="" style="ellipse;whiteSpace=wrap;html=1;aspect=fixed;fontSize=12;fillColor=#fff2cc;strokeColor=#d6b656;" vertex="1" parent="1">
          <mxGeometry x="330" y="175" width="17" height="19" as="geometry" />
        </mxCell>
        <mxCell id="3k8ihjljbsw3tqjHmIiB-57" style="edgeStyle=orthogonalEdgeStyle;rounded=0;orthogonalLoop=1;jettySize=auto;html=1;entryX=1;entryY=0.5;entryDx=0;entryDy=0;" edge="1" parent="1" source="3k8ihjljbsw3tqjHmIiB-58" target="3k8ihjljbsw3tqjHmIiB-56">
          <mxGeometry relative="1" as="geometry" />
        </mxCell>
        <mxCell id="3k8ihjljbsw3tqjHmIiB-58" value="" style="ellipse;whiteSpace=wrap;html=1;aspect=fixed;fontSize=12;fillColor=#fff2cc;strokeColor=#d6b656;" vertex="1" parent="1">
          <mxGeometry x="415" y="175" width="17" height="19" as="geometry" />
        </mxCell>
        <mxCell id="3k8ihjljbsw3tqjHmIiB-59" value="" style="edgeStyle=orthogonalEdgeStyle;rounded=0;orthogonalLoop=1;jettySize=auto;html=1;" edge="1" parent="1" source="3k8ihjljbsw3tqjHmIiB-60" target="3k8ihjljbsw3tqjHmIiB-62">
          <mxGeometry relative="1" as="geometry" />
        </mxCell>
        <mxCell id="3k8ihjljbsw3tqjHmIiB-60" value="" style="ellipse;whiteSpace=wrap;html=1;aspect=fixed;fontSize=12;fillColor=#fff2cc;strokeColor=#d6b656;" vertex="1" parent="1">
          <mxGeometry x="270" y="175" width="17" height="19" as="geometry" />
        </mxCell>
        <mxCell id="3k8ihjljbsw3tqjHmIiB-61" value="" style="edgeStyle=orthogonalEdgeStyle;rounded=0;orthogonalLoop=1;jettySize=auto;html=1;" edge="1" parent="1" source="3k8ihjljbsw3tqjHmIiB-62" target="3k8ihjljbsw3tqjHmIiB-63">
          <mxGeometry relative="1" as="geometry" />
        </mxCell>
        <mxCell id="3k8ihjljbsw3tqjHmIiB-62" value="" style="ellipse;whiteSpace=wrap;html=1;aspect=fixed;fontSize=12;fillColor=#fff2cc;strokeColor=#d6b656;" vertex="1" parent="1">
          <mxGeometry x="220" y="175" width="17" height="19" as="geometry" />
        </mxCell>
        <mxCell id="3k8ihjljbsw3tqjHmIiB-63" value="" style="ellipse;whiteSpace=wrap;html=1;aspect=fixed;fontSize=12;fillColor=#fff2cc;strokeColor=#d6b656;" vertex="1" parent="1">
          <mxGeometry x="60" y="175" width="17" height="19" as="geometry" />
        </mxCell>
        <mxCell id="3k8ihjljbsw3tqjHmIiB-64" value="" style="edgeStyle=orthogonalEdgeStyle;rounded=0;orthogonalLoop=1;jettySize=auto;html=1;" edge="1" parent="1" source="3k8ihjljbsw3tqjHmIiB-4" target="3k8ihjljbsw3tqjHmIiB-65">
          <mxGeometry relative="1" as="geometry">
            <mxPoint x="30.000000000000114" y="230.0000000000001" as="targetPoint" />
            <mxPoint x="870" y="230" as="sourcePoint" />
          </mxGeometry>
        </mxCell>
        <mxCell id="3k8ihjljbsw3tqjHmIiB-65" value="" style="ellipse;whiteSpace=wrap;html=1;aspect=fixed;fontSize=12;fillColor=#f8cecc;strokeColor=#b85450;" vertex="1" parent="1">
          <mxGeometry x="550" y="220" width="17" height="19" as="geometry" />
        </mxCell>
        <mxCell id="3k8ihjljbsw3tqjHmIiB-66" value="" style="edgeStyle=orthogonalEdgeStyle;rounded=0;orthogonalLoop=1;jettySize=auto;html=1;" edge="1" parent="1" source="3k8ihjljbsw3tqjHmIiB-2" target="3k8ihjljbsw3tqjHmIiB-67">
          <mxGeometry relative="1" as="geometry">
            <mxPoint x="-1.6667175292967613" y="270.0000000000001" as="targetPoint" />
            <mxPoint x="870" y="270" as="sourcePoint" />
          </mxGeometry>
        </mxCell>
        <mxCell id="3k8ihjljbsw3tqjHmIiB-67" value="" style="ellipse;whiteSpace=wrap;html=1;aspect=fixed;fontSize=12;fillColor=#d5e8d4;strokeColor=#82b366;" vertex="1" parent="1">
          <mxGeometry x="810" y="260" width="17" height="19" as="geometry" />
        </mxCell>
        <mxCell id="3k8ihjljbsw3tqjHmIiB-68" value="" style="edgeStyle=orthogonalEdgeStyle;rounded=0;orthogonalLoop=1;jettySize=auto;html=1;" edge="1" parent="1" source="3k8ihjljbsw3tqjHmIiB-67" target="3k8ihjljbsw3tqjHmIiB-69">
          <mxGeometry relative="1" as="geometry">
            <mxPoint x="-1.6667175292967613" y="270.0000000000001" as="targetPoint" />
            <mxPoint x="620" y="270" as="sourcePoint" />
          </mxGeometry>
        </mxCell>
        <mxCell id="3k8ihjljbsw3tqjHmIiB-69" value="" style="ellipse;whiteSpace=wrap;html=1;aspect=fixed;fontSize=12;fillColor=#d5e8d4;strokeColor=#82b366;" vertex="1" parent="1">
          <mxGeometry x="530" y="260" width="17" height="19" as="geometry" />
        </mxCell>
        <mxCell id="3k8ihjljbsw3tqjHmIiB-70" value="" style="edgeStyle=orthogonalEdgeStyle;rounded=0;orthogonalLoop=1;jettySize=auto;html=1;" edge="1" parent="1" source="3k8ihjljbsw3tqjHmIiB-69" target="3k8ihjljbsw3tqjHmIiB-71">
          <mxGeometry relative="1" as="geometry">
            <mxPoint x="-1.6667175292967613" y="270.0000000000001" as="targetPoint" />
            <mxPoint x="450" y="270" as="sourcePoint" />
          </mxGeometry>
        </mxCell>
        <mxCell id="3k8ihjljbsw3tqjHmIiB-71" value="" style="ellipse;whiteSpace=wrap;html=1;aspect=fixed;fontSize=12;fillColor=#d5e8d4;strokeColor=#82b366;" vertex="1" parent="1">
          <mxGeometry x="180" y="260" width="17" height="19" as="geometry" />
        </mxCell>
        <mxCell id="3k8ihjljbsw3tqjHmIiB-72" value="" style="edgeStyle=orthogonalEdgeStyle;rounded=0;orthogonalLoop=1;jettySize=auto;html=1;" edge="1" parent="1" source="3k8ihjljbsw3tqjHmIiB-71" target="3k8ihjljbsw3tqjHmIiB-73">
          <mxGeometry relative="1" as="geometry">
            <mxPoint x="-1.6667175292967613" y="270.0000000000001" as="targetPoint" />
            <mxPoint x="260" y="270" as="sourcePoint" />
          </mxGeometry>
        </mxCell>
        <mxCell id="3k8ihjljbsw3tqjHmIiB-73" value="" style="ellipse;whiteSpace=wrap;html=1;aspect=fixed;fontSize=12;fillColor=#d5e8d4;strokeColor=#82b366;" vertex="1" parent="1">
          <mxGeometry x="40" y="260" width="17" height="19" as="geometry" />
        </mxCell>
        <mxCell id="3k8ihjljbsw3tqjHmIiB-74" value="" style="endArrow=classic;html=1;rounded=0;exitX=0.5;exitY=1;exitDx=0;exitDy=0;" edge="1" parent="1" source="3k8ihjljbsw3tqjHmIiB-63">
          <mxGeometry width="50" height="50" relative="1" as="geometry">
            <mxPoint x="70" y="190" as="sourcePoint" />
            <mxPoint x="50" y="260" as="targetPoint" />
            <Array as="points">
              <mxPoint x="50" y="250" />
            </Array>
          </mxGeometry>
        </mxCell>
        <mxCell id="3k8ihjljbsw3tqjHmIiB-75" value="" style="endArrow=classic;html=1;rounded=0;exitX=0.5;exitY=1;exitDx=0;exitDy=0;" edge="1" parent="1" source="3k8ihjljbsw3tqjHmIiB-62">
          <mxGeometry width="50" height="50" relative="1" as="geometry">
            <mxPoint x="220" y="195" as="sourcePoint" />
            <mxPoint x="200" y="265" as="targetPoint" />
          </mxGeometry>
        </mxCell>
        <mxCell id="3k8ihjljbsw3tqjHmIiB-76" value="" style="endArrow=classic;html=1;rounded=0;exitX=0.5;exitY=1;exitDx=0;exitDy=0;" edge="1" parent="1" source="3k8ihjljbsw3tqjHmIiB-65">
          <mxGeometry width="50" height="50" relative="1" as="geometry">
            <mxPoint x="560" y="230" as="sourcePoint" />
            <mxPoint x="540" y="260" as="targetPoint" />
          </mxGeometry>
        </mxCell>
        <mxCell id="3k8ihjljbsw3tqjHmIiB-77" value="" style="curved=1;endArrow=classic;html=1;rounded=0;exitX=0;exitY=0;exitDx=0;exitDy=0;entryX=1;entryY=1;entryDx=0;entryDy=0;" edge="1" parent="1" source="3k8ihjljbsw3tqjHmIiB-67" target="3k8ihjljbsw3tqjHmIiB-65">
          <mxGeometry width="50" height="50" relative="1" as="geometry">
            <mxPoint x="750" y="420" as="sourcePoint" />
            <mxPoint x="545" y="320" as="targetPoint" />
            <Array as="points">
              <mxPoint x="720" y="260" />
            </Array>
          </mxGeometry>
        </mxCell>
        <mxCell id="3k8ihjljbsw3tqjHmIiB-78" value="" style="endArrow=classic;html=1;rounded=0;exitX=0.5;exitY=0;exitDx=0;exitDy=0;" edge="1" parent="1" source="3k8ihjljbsw3tqjHmIiB-67">
          <mxGeometry width="50" height="50" relative="1" as="geometry">
            <mxPoint x="836.0310678118653" y="262.9289321881346" as="sourcePoint" />
            <mxPoint x="803.96" y="150" as="targetPoint" />
          </mxGeometry>
        </mxCell>
        <mxCell id="3k8ihjljbsw3tqjHmIiB-79" value="" style="endArrow=classic;html=1;rounded=0;exitX=0.5;exitY=0;exitDx=0;exitDy=0;entryX=1;entryY=1;entryDx=0;entryDy=0;" edge="1" parent="1" source="3k8ihjljbsw3tqjHmIiB-65" target="3k8ihjljbsw3tqjHmIiB-36">
          <mxGeometry width="50" height="50" relative="1" as="geometry">
            <mxPoint x="420" y="220" as="sourcePoint" />
            <mxPoint x="470" y="170" as="targetPoint" />
          </mxGeometry>
        </mxCell>
        <mxCell id="3k8ihjljbsw3tqjHmIiB-80" value="" style="endArrow=classic;html=1;rounded=0;exitX=0;exitY=1;exitDx=0;exitDy=0;" edge="1" parent="1" source="3k8ihjljbsw3tqjHmIiB-41">
          <mxGeometry width="50" height="50" relative="1" as="geometry">
            <mxPoint x="475" y="125" as="sourcePoint" />
            <mxPoint x="425" y="175" as="targetPoint" />
          </mxGeometry>
        </mxCell>
        <mxCell id="3k8ihjljbsw3tqjHmIiB-81" value="" style="endArrow=classic;html=1;rounded=0;entryX=0.5;entryY=1;entryDx=0;entryDy=0;" edge="1" parent="1" target="3k8ihjljbsw3tqjHmIiB-50">
          <mxGeometry width="50" height="50" relative="1" as="geometry">
            <mxPoint x="340" y="175" as="sourcePoint" />
            <mxPoint x="390" y="125" as="targetPoint" />
          </mxGeometry>
        </mxCell>
        <mxCell id="3k8ihjljbsw3tqjHmIiB-82" value="" style="endArrow=classic;html=1;rounded=0;entryX=0.5;entryY=1;entryDx=0;entryDy=0;exitX=0.5;exitY=0;exitDx=0;exitDy=0;" edge="1" parent="1" source="3k8ihjljbsw3tqjHmIiB-62" target="3k8ihjljbsw3tqjHmIiB-38">
          <mxGeometry width="50" height="50" relative="1" as="geometry">
            <mxPoint x="350" y="185" as="sourcePoint" />
            <mxPoint x="330" y="160" as="targetPoint" />
          </mxGeometry>
        </mxCell>
        <mxCell id="3k8ihjljbsw3tqjHmIiB-83" value="" style="endArrow=classic;html=1;rounded=0;exitX=0;exitY=1;exitDx=0;exitDy=0;entryX=1;entryY=0;entryDx=0;entryDy=0;" edge="1" parent="1" source="3k8ihjljbsw3tqjHmIiB-43" target="3k8ihjljbsw3tqjHmIiB-63">
          <mxGeometry width="50" height="50" relative="1" as="geometry">
            <mxPoint x="100" y="120" as="sourcePoint" />
            <mxPoint x="80" y="170" as="targetPoint" />
          </mxGeometry>
        </mxCell>
        <mxCell id="3k8ihjljbsw3tqjHmIiB-84" value="" style="endArrow=classic;html=1;rounded=0;entryX=1;entryY=1;entryDx=0;entryDy=0;exitX=0;exitY=0.5;exitDx=0;exitDy=0;" edge="1" parent="1" source="3k8ihjljbsw3tqjHmIiB-63" target="3k8ihjljbsw3tqjHmIiB-39">
          <mxGeometry width="50" height="50" relative="1" as="geometry">
            <mxPoint x="240" y="185" as="sourcePoint" />
            <mxPoint x="210" y="160" as="targetPoint" />
          </mxGeometry>
        </mxCell>
        <mxCell id="3k8ihjljbsw3tqjHmIiB-85" value="" style="endArrow=classic;html=1;rounded=0;exitX=0.5;exitY=0;exitDx=0;exitDy=0;entryX=1;entryY=1;entryDx=0;entryDy=0;" edge="1" parent="1" source="3k8ihjljbsw3tqjHmIiB-52">
          <mxGeometry width="50" height="50" relative="1" as="geometry">
            <mxPoint x="660" y="150" as="sourcePoint" />
            <mxPoint x="627" y="77" as="targetPoint" />
          </mxGeometry>
        </mxCell>
        <mxCell id="3k8ihjljbsw3tqjHmIiB-86" value="" style="endArrow=classic;html=1;rounded=0;entryX=0.5;entryY=1;entryDx=0;entryDy=0;exitX=0;exitY=0;exitDx=0;exitDy=0;" edge="1" parent="1" source="3k8ihjljbsw3tqjHmIiB-52" target="3k8ihjljbsw3tqjHmIiB-23">
          <mxGeometry width="50" height="50" relative="1" as="geometry">
            <mxPoint x="350" y="185" as="sourcePoint" />
            <mxPoint x="330" y="160" as="targetPoint" />
          </mxGeometry>
        </mxCell>
        <mxCell id="3k8ihjljbsw3tqjHmIiB-87" value="" style="endArrow=classic;html=1;rounded=0;exitX=0.5;exitY=1;exitDx=0;exitDy=0;entryX=0.5;entryY=0;entryDx=0;entryDy=0;" edge="1" parent="1" source="3k8ihjljbsw3tqjHmIiB-30" target="3k8ihjljbsw3tqjHmIiB-41">
          <mxGeometry width="50" height="50" relative="1" as="geometry">
            <mxPoint x="463" y="157" as="sourcePoint" />
            <mxPoint x="435" y="185" as="targetPoint" />
            <Array as="points">
              <mxPoint x="470" y="120" />
            </Array>
          </mxGeometry>
        </mxCell>
        <mxCell id="3k8ihjljbsw3tqjHmIiB-88" value="" style="endArrow=classic;html=1;rounded=0;entryX=0.5;entryY=1;entryDx=0;entryDy=0;exitX=0;exitY=0;exitDx=0;exitDy=0;" edge="1" parent="1" source="3k8ihjljbsw3tqjHmIiB-50">
          <mxGeometry width="50" height="50" relative="1" as="geometry">
            <mxPoint x="343" y="133" as="sourcePoint" />
            <mxPoint x="290" y="110" as="targetPoint" />
          </mxGeometry>
        </mxCell>
        <mxCell id="3k8ihjljbsw3tqjHmIiB-89" value="" style="endArrow=classic;html=1;rounded=0;entryX=0;entryY=0;entryDx=0;entryDy=0;exitX=0;exitY=1;exitDx=0;exitDy=0;" edge="1" parent="1" source="3k8ihjljbsw3tqjHmIiB-21" target="3k8ihjljbsw3tqjHmIiB-43">
          <mxGeometry width="50" height="50" relative="1" as="geometry">
            <mxPoint x="45" y="90" as="sourcePoint" />
            <mxPoint x="95" y="40" as="targetPoint" />
          </mxGeometry>
        </mxCell>
        <mxCell id="3k8ihjljbsw3tqjHmIiB-90" value="" style="endArrow=classic;html=1;rounded=0;exitX=0;exitY=1;exitDx=0;exitDy=0;entryX=1;entryY=0;entryDx=0;entryDy=0;" edge="1" parent="1" source="3k8ihjljbsw3tqjHmIiB-28" target="3k8ihjljbsw3tqjHmIiB-43">
          <mxGeometry width="50" height="50" relative="1" as="geometry">
            <mxPoint x="113" y="157" as="sourcePoint" />
            <mxPoint x="87" y="188" as="targetPoint" />
          </mxGeometry>
        </mxCell>
        <mxCell id="3k8ihjljbsw3tqjHmIiB-91" value="Tag&lt;br&gt;0.1" style="shape=callout;whiteSpace=wrap;html=1;perimeter=calloutPerimeter;direction=west;fillColor=#d5e8d4;strokeColor=#82b366;" vertex="1" parent="1">
          <mxGeometry x="775" y="280" width="87" height="69" as="geometry" />
        </mxCell>
        <mxCell id="3k8ihjljbsw3tqjHmIiB-92" value="Tag&lt;br&gt;0.2" style="shape=callout;whiteSpace=wrap;html=1;perimeter=calloutPerimeter;direction=west;fillColor=#d5e8d4;strokeColor=#82b366;" vertex="1" parent="1">
          <mxGeometry x="490" y="280" width="87" height="69" as="geometry" />
        </mxCell>
        <mxCell id="3k8ihjljbsw3tqjHmIiB-93" value="Tag&lt;br&gt;1.0" style="shape=callout;whiteSpace=wrap;html=1;perimeter=calloutPerimeter;direction=west;fillColor=#d5e8d4;strokeColor=#82b366;" vertex="1" parent="1">
          <mxGeometry x="145" y="280" width="87" height="69" as="geometry" />
        </mxCell>
        <mxCell id="3k8ihjljbsw3tqjHmIiB-94" value="&lt;font style=&quot;font-size: 10px;&quot;&gt;Severe bug fixed for production&amp;nbsp;&lt;br&gt;hotfix 0.2&lt;/font&gt;" style="shape=callout;whiteSpace=wrap;html=1;perimeter=calloutPerimeter;direction=south;fillColor=#f8cecc;strokeColor=#b85450;" vertex="1" parent="1">
          <mxGeometry x="660" y="400" width="178" height="41" as="geometry" />
        </mxCell>
        <mxCell id="3k8ihjljbsw3tqjHmIiB-95" value="" style="curved=1;endArrow=classic;html=1;rounded=0;exitX=0;exitY=0;exitDx=20;exitDy=180;exitPerimeter=0;" edge="1" parent="1" source="3k8ihjljbsw3tqjHmIiB-94">
          <mxGeometry width="50" height="50" relative="1" as="geometry">
            <mxPoint x="610" y="355" as="sourcePoint" />
            <mxPoint x="560" y="240" as="targetPoint" />
            <Array as="points">
              <mxPoint x="660" y="355" />
              <mxPoint x="610" y="305" />
            </Array>
          </mxGeometry>
        </mxCell>
        <mxCell id="3k8ihjljbsw3tqjHmIiB-96" value="Only Bugs" style="shape=callout;whiteSpace=wrap;html=1;perimeter=calloutPerimeter;direction=south;fillColor=#fff2cc;strokeColor=#d6b656;" vertex="1" parent="1">
          <mxGeometry x="307" y="310" width="108" height="30" as="geometry" />
        </mxCell>
        <mxCell id="3k8ihjljbsw3tqjHmIiB-97" value="" style="curved=1;endArrow=classic;html=1;rounded=0;entryX=0.5;entryY=1;entryDx=0;entryDy=0;exitX=0;exitY=0;exitDx=15;exitDy=108;exitPerimeter=0;" edge="1" parent="1" source="3k8ihjljbsw3tqjHmIiB-96" target="3k8ihjljbsw3tqjHmIiB-60">
          <mxGeometry width="50" height="50" relative="1" as="geometry">
            <mxPoint x="257" y="339.5" as="sourcePoint" />
            <mxPoint x="307" y="289.5" as="targetPoint" />
            <Array as="points">
              <mxPoint x="257" y="289.5" />
            </Array>
          </mxGeometry>
        </mxCell>
        <mxCell id="3k8ihjljbsw3tqjHmIiB-98" value="Start of release branch for 1.0" style="shape=callout;whiteSpace=wrap;html=1;perimeter=calloutPerimeter;direction=south;fillColor=#fff2cc;strokeColor=#d6b656;" vertex="1" parent="1">
          <mxGeometry x="442" y="370" width="135" height="30" as="geometry" />
        </mxCell>
        <mxCell id="3k8ihjljbsw3tqjHmIiB-99" value="" style="curved=1;endArrow=classic;html=1;rounded=0;entryX=0.5;entryY=1;entryDx=0;entryDy=0;exitX=0;exitY=0;exitDx=15;exitDy=135;exitPerimeter=0;" edge="1" parent="1" source="3k8ihjljbsw3tqjHmIiB-98" target="3k8ihjljbsw3tqjHmIiB-58">
          <mxGeometry width="50" height="50" relative="1" as="geometry">
            <mxPoint x="440" y="230" as="sourcePoint" />
            <mxPoint x="490" y="180" as="targetPoint" />
            <Array as="points" />
          </mxGeometry>
        </mxCell>
        <mxCell id="3k8ihjljbsw3tqjHmIiB-100" value="&lt;font style=&quot;font-size: 10px;&quot;&gt;Incorporate bugfix in develop&lt;br&gt;&lt;/font&gt;" style="shape=callout;whiteSpace=wrap;html=1;perimeter=calloutPerimeter;direction=south;fillColor=#f5f5f5;strokeColor=#666666;fontColor=#333333;" vertex="1" parent="1">
          <mxGeometry x="580" y="-20" width="148" height="31" as="geometry" />
        </mxCell>
        <mxCell id="3k8ihjljbsw3tqjHmIiB-101" value="" style="curved=1;endArrow=classic;html=1;rounded=0;exitX=0;exitY=0;exitDx=15.5;exitDy=148;exitPerimeter=0;entryX=0.5;entryY=0;entryDx=0;entryDy=0;" edge="1" parent="1" source="3k8ihjljbsw3tqjHmIiB-100" target="3k8ihjljbsw3tqjHmIiB-36">
          <mxGeometry width="50" height="50" relative="1" as="geometry">
            <mxPoint x="440" y="230" as="sourcePoint" />
            <mxPoint x="520" y="120" as="targetPoint" />
            <Array as="points">
              <mxPoint x="520" y="20" />
              <mxPoint x="520" y="60" />
            </Array>
          </mxGeometry>
        </mxCell>
      </root>
    </mxGraphModel>
  </diagram>
</mxfile>
